<?xml version="1.0" standalone="no"?>
<!DOCTYPE svg PUBLIC "-//W3C//DTD SVG 20010904//EN"
 "http://www.w3.org/TR/2001/REC-SVG-20010904/DTD/svg10.dtd">
<svg version="1.0" xmlns="http://www.w3.org/2000/svg"
 width="1788.000000pt" height="312.000000pt" viewBox="0 0 1788.000000 312.000000"
 preserveAspectRatio="xMidYMid meet">
<g transform="translate(0.000000,312.000000) scale(0.100000,-0.100000)"
fill="#000000" stroke="none">
<path d="M2217 2834 c-11 -12 3 -24 29 -24 15 0 24 6 24 15 0 15 -40 21 -53 9z"/>
<path d="M2207 2684 c-9 -9 -9 -156 -1 -178 8 -20 42 -21 63 -2 13 12 15 30
11 98 l-5 83 -30 3 c-17 2 -34 0 -38 -4z"/>
<path d="M14613 2595 c-13 -10 -14 -17 -5 -43 6 -16 8 -33 5 -36 -4 -3 -40 -6
-81 -6 -97 0 -101 -5 -102 -130 0 -92 14 -158 38 -182 7 -7 12 -17 12 -23 0
-29 120 -115 160 -115 9 0 26 -19 39 -44 44 -90 141 -173 234 -200 15 -5 17
-15 15 -73 l-3 -68 -100 -5 -100 -5 0 -40 0 -40 239 0 c222 0 239 1 252 19 11
16 10 22 -3 42 -14 23 -21 24 -118 24 l-103 0 -1 62 c-1 68 10 88 46 88 27 0
114 53 156 95 15 15 41 52 58 81 23 42 40 58 75 73 69 31 103 59 140 117 33
52 35 59 39 171 3 64 3 125 -1 135 -5 16 -17 18 -90 18 l-85 0 6 33 c13 66 16
65 -365 64 -245 0 -345 -4 -357 -12z m645 -167 c4 -119 -19 -265 -54 -345 -40
-90 -172 -203 -237 -203 -13 0 -32 7 -43 15 -10 8 -26 15 -34 15 -24 0 -104
79 -133 130 -14 25 -34 79 -43 120 -18 79 -35 348 -23 365 5 6 109 9 286 8
l278 -2 3 -103z m-646 -75 c-1 -38 4 -95 13 -130 23 -90 8 -106 -45 -50 -56
58 -71 99 -68 185 l3 77 35 6 c53 8 66 -9 62 -88z m816 71 c8 -2 12 -24 12
-63 0 -63 -34 -145 -80 -191 -29 -29 -55 -19 -46 18 4 15 10 78 13 139 l6 113
41 -6 c22 -3 47 -7 54 -10z"/>
<path d="M8428 2546 c-31 -6 -63 -17 -70 -23 -6 -7 -19 -13 -28 -13 -18 0 -51
-32 -69 -68 -8 -16 -12 -128 -13 -384 0 -321 2 -363 16 -380 18 -20 51 -17 71
7 5 7 47 18 92 25 79 12 111 9 205 -16 10 -3 36 -23 58 -45 45 -45 67 -45 94
-4 9 14 22 25 28 25 6 0 19 6 27 13 28 24 155 42 200 29 21 -7 50 -12 63 -12
14 0 31 -7 38 -15 7 -9 29 -15 51 -15 l39 0 0 383 0 383 -32 33 c-41 42 -80
63 -148 77 -100 22 -195 -6 -305 -90 -7 -5 -22 1 -41 19 -41 38 -91 61 -159
74 -32 6 -59 10 -59 10 -1 -1 -27 -7 -58 -13z m668 -97 l49 -24 3 -324 c1
-188 -2 -329 -7 -334 -6 -6 -18 -3 -32 7 -18 12 -47 16 -122 16 -84 0 -104 -3
-147 -25 -33 -17 -51 -21 -56 -14 -4 6 -6 151 -5 323 l1 311 36 30 c78 65 190
79 280 34z m-492 0 c24 -11 54 -31 66 -44 22 -23 22 -27 23 -336 0 -233 -3
-314 -12 -317 -6 -2 -29 6 -52 17 -33 17 -58 21 -143 21 -80 0 -106 -3 -116
-15 -13 -16 -40 -21 -40 -7 -4 360 1 647 12 658 44 45 190 57 262 23z"/>
<path d="M1838 2519 c-10 -10 -18 -23 -18 -28 0 -20 97 -111 118 -111 19 0 42
26 42 47 0 15 -97 113 -111 112 -8 0 -22 -9 -31 -20z"/>
<path d="M2558 2489 c-60 -65 -66 -83 -34 -104 25 -17 26 -16 81 32 33 29 55
56 55 69 0 21 -28 54 -46 54 -5 0 -30 -23 -56 -51z"/>
<path d="M1730 2495 c0 -9 5 -15 11 -13 6 2 11 8 11 13 0 5 -5 11 -11 13 -6 2
-11 -4 -11 -13z"/>
<path d="M2119 2402 c-139 -67 -219 -213 -191 -350 6 -31 20 -74 30 -94 25
-48 100 -127 128 -134 13 -3 28 -12 35 -20 8 -10 39 -14 119 -14 l108 0 61 45
c64 48 101 81 101 92 0 3 6 14 13 22 17 19 34 86 42 162 5 43 3 59 -9 69 -9 7
-16 21 -16 31 0 38 -79 149 -106 149 -7 0 -17 6 -21 13 -27 41 -226 61 -294
29z m243 -93 c21 -11 54 -43 77 -76 38 -52 41 -61 41 -121 0 -46 -6 -79 -21
-109 -23 -48 -104 -123 -133 -123 -11 0 -34 -5 -53 -12 -27 -10 -42 -9 -88 6
-76 24 -139 84 -165 159 -24 67 -25 93 -5 131 8 15 15 33 15 39 0 16 70 97 84
97 8 0 19 6 26 14 24 30 159 27 222 -5z"/>
<path d="M1671 2128 c-5 -13 -5 -32 -1 -43 6 -18 16 -20 90 -20 92 0 108 10
96 58 -6 27 -8 27 -92 27 -79 0 -85 -2 -93 -22z"/>
<path d="M2634 2136 c-3 -8 -4 -27 -2 -43 l3 -28 87 -3 c86 -3 88 -2 94 22 3
13 3 34 -1 45 -6 19 -14 21 -91 21 -64 0 -86 -3 -90 -14z"/>
<path d="M2537 1832 c-10 -2 -22 -15 -28 -29 -8 -22 -3 -31 43 -79 28 -30 55
-54 60 -54 15 0 48 40 47 58 0 24 -100 109 -122 104z"/>
<path d="M1868 1779 c-27 -29 -48 -54 -48 -58 1 -13 39 -51 51 -51 19 0 109
101 109 122 0 18 -28 38 -52 38 -7 0 -34 -23 -60 -51z"/>
<path d="M2217 1706 c-15 -16 -22 -153 -8 -174 4 -8 21 -12 37 -10 l29 3 3 85
c2 71 0 87 -14 97 -23 16 -29 16 -47 -1z"/>
<path d="M2185 1179 c-4 -6 -3 -15 3 -21 6 -6 11 -4 15 6 7 18 -9 31 -18 15z"/>
<path d="M15240 1180 c0 -5 9 -10 21 -10 11 0 17 5 14 10 -3 6 -13 10 -21 10
-8 0 -14 -4 -14 -10z"/>
<path d="M9055 1151 c-6 -11 9 -23 19 -14 9 9 7 23 -3 23 -6 0 -12 -4 -16 -9z"/>
<path d="M9155 1150 c-3 -5 3 -10 15 -10 12 0 18 5 15 10 -3 6 -10 10 -15 10
-5 0 -12 -4 -15 -10z"/>
<path d="M14690 1150 c-12 -8 -9 -10 13 -10 15 0 27 5 27 10 0 13 -20 13 -40
0z"/>
<path d="M15802 1148 c6 -18 28 -21 28 -4 0 9 -7 16 -16 16 -9 0 -14 -5 -12
-12z"/>
<path d="M2326 1114 c-4 -9 -3 -38 0 -65 4 -26 4 -55 0 -64 -5 -15 -9 -14 -35
4 -39 28 -67 26 -108 -5 -81 -61 -82 -181 -3 -248 36 -29 90 -35 110 -11 16
20 30 19 46 -2 11 -16 14 -16 28 -3 13 13 16 48 18 201 1 102 -2 190 -6 197
-11 17 -43 15 -50 -4z m-21 -189 c36 -35 35 -105 -1 -134 -34 -27 -72 -27
-101 1 -31 29 -33 108 -3 138 28 28 75 26 105 -5z"/>
<path d="M9562 1118 c6 -18 28 -21 28 -4 0 9 -7 16 -16 16 -9 0 -14 -5 -12
-12z"/>
<path d="M15021 1113 c-12 -25 -6 -382 8 -396 7 -7 12 -6 17 6 8 21 37 22 54
2 7 -9 29 -15 51 -15 31 0 45 7 74 35 34 34 35 38 35 110 0 74 0 75 -40 115
-43 43 -87 53 -110 25 -7 -8 -21 -15 -31 -15 -16 0 -18 6 -12 66 5 51 3 68 -8
75 -20 13 -27 11 -38 -8z m169 -183 c28 -28 35 -67 20 -109 -15 -43 -25 -51
-68 -51 -48 0 -82 40 -82 96 0 34 5 47 26 63 34 26 78 27 104 1z"/>
<path d="M16250 1055 c0 -57 -3 -75 -14 -75 -7 0 -19 7 -26 15 -37 44 -131
-15 -150 -95 -15 -63 1 -125 43 -162 35 -32 90 -38 118 -12 16 15 20 14 48 -2
17 -10 33 -16 35 -13 3 3 6 92 6 197 2 201 -2 222 -41 222 -17 0 -19 -8 -19
-75z m-18 -122 c23 -21 25 -109 2 -141 -21 -31 -87 -31 -108 0 -28 40 -30 84
-6 123 18 29 27 35 58 35 19 0 44 -7 54 -17z"/>
<path d="M13756 1110 c-40 -12 -86 -67 -86 -102 0 -16 7 -40 16 -54 17 -25 85
-64 112 -64 27 0 82 -41 82 -61 0 -35 -36 -59 -87 -59 -40 0 -50 4 -73 32 -30
36 -60 34 -60 -5 0 -16 13 -33 44 -55 68 -49 155 -41 204 17 17 21 15 102 -4
129 -18 26 -88 62 -119 62 -40 0 -69 54 -47 86 10 15 47 34 67 34 9 0 32 -15
51 -34 39 -38 64 -38 64 0 0 16 -12 31 -38 49 -44 29 -86 37 -126 25z"/>
<path d="M1543 1094 c-9 -25 15 -39 70 -39 l52 0 5 -170 5 -170 28 -3 c20 -3
27 1 28 15 0 10 1 88 2 173 l2 155 52 -3 c42 -3 53 0 62 15 18 35 1 40 -152
41 -124 1 -149 -1 -154 -14z"/>
<path d="M7973 1097 c-8 -14 -15 -344 -7 -370 5 -16 18 -17 122 -15 105 3 117
5 120 22 7 32 -15 41 -101 41 l-82 0 -6 50 c-3 28 -4 53 -2 58 2 4 39 7 83 7
81 0 97 9 83 46 -4 12 -20 15 -67 14 -91 -2 -94 -2 -101 20 -3 10 -3 36 1 56
l7 37 78 -6 c84 -5 118 6 106 36 -5 14 -24 16 -117 16 -71 -1 -112 -5 -117
-12z"/>
<path d="M8925 1099 c-4 -5 -4 -21 -1 -35 5 -18 13 -24 36 -24 33 0 50 31 30
55 -14 17 -56 20 -65 4z"/>
<path d="M8577 1074 c-4 -4 -7 -20 -7 -35 0 -19 -8 -34 -25 -45 -14 -9 -25
-20 -25 -25 0 -5 11 -14 25 -19 24 -9 25 -12 25 -103 0 -85 2 -96 23 -115 31
-29 93 -30 102 -2 8 27 -1 40 -29 40 -38 0 -47 21 -44 102 l3 73 33 3 c28 3
33 7 30 25 -2 16 -10 22 -28 22 -22 0 -25 5 -28 38 -2 20 -7 37 -12 37 -5 0
-15 2 -22 5 -8 3 -17 2 -21 -1z"/>
<path d="M1903 991 c-43 -27 -83 -88 -83 -129 0 -43 32 -105 69 -131 84 -60
201 15 201 129 0 68 -72 150 -133 150 -12 0 -36 -9 -54 -19z m104 -63 c31 -29
33 -108 3 -138 -27 -27 -77 -26 -107 2 -32 30 -32 102 -1 135 28 30 74 30 105
1z"/>
<path d="M2510 1001 c0 -5 -11 -12 -25 -15 -24 -6 -48 -42 -38 -58 7 -14 40
-9 53 7 9 11 27 15 54 13 36 -3 41 -6 44 -30 3 -26 1 -28 -37 -28 -74 0 -138
-56 -126 -110 12 -56 104 -93 135 -55 7 8 21 15 32 15 10 0 21 -7 24 -15 4 -8
13 -15 21 -15 12 0 13 18 8 110 -6 125 -14 148 -56 173 -32 18 -89 23 -89 8z
m88 -182 c2 -14 -4 -31 -12 -38 -19 -16 -82 -19 -97 -4 -18 18 -1 50 34 61 50
16 72 11 75 -19z"/>
<path d="M2697 1003 c-10 -9 -8 -47 2 -58 5 -6 14 -26 19 -45 19 -63 38 -110
50 -122 7 -7 12 -28 12 -48 0 -43 -24 -70 -63 -70 -22 0 -27 -5 -27 -23 0 -13
2 -26 5 -29 9 -9 83 8 97 23 19 19 48 78 48 99 0 9 7 25 15 36 8 10 15 25 15
33 0 13 16 51 57 137 26 54 -4 98 -38 57 -14 -17 -41 -97 -54 -156 -7 -35 -36
-33 -47 3 -4 14 -14 52 -24 85 -18 68 -46 100 -67 78z"/>
<path d="M8267 1003 c-9 -8 -9 -256 -1 -277 7 -18 30 -21 40 -5 3 6 6 53 5
104 -2 86 0 94 21 109 34 24 75 20 93 -8 12 -18 15 -45 13 -109 -3 -90 6 -115
37 -103 15 5 16 21 13 122 l-3 116 -35 29 c-40 34 -71 37 -110 9 l-29 -21 -11
21 c-11 21 -22 25 -33 13z"/>
<path d="M8827 993 c-14 -15 -20 -15 -42 -3 -14 7 -27 11 -29 9 -7 -7 -15
-259 -10 -274 10 -24 43 -18 50 9 3 13 3 55 0 92 -5 80 10 110 63 120 38 8 45
18 31 44 -13 24 -40 26 -63 3z"/>
<path d="M9118 991 c-53 -34 -68 -64 -68 -134 0 -62 2 -66 40 -106 34 -35 46
-41 80 -41 50 0 100 33 100 67 0 16 -6 23 -20 23 -11 0 -20 -4 -20 -8 0 -15
-45 -30 -72 -25 -32 6 -72 47 -65 66 3 9 29 14 92 15 48 1 91 4 96 8 15 9 10
57 -10 87 -23 35 -74 67 -104 66 -12 0 -34 -8 -49 -18z m102 -61 c12 -12 18
-25 15 -30 -6 -10 -145 -14 -145 -5 0 3 7 17 16 30 21 33 84 35 114 5z"/>
<path d="M9362 981 c-33 -31 -40 -58 -22 -92 12 -21 62 -51 100 -59 19 -4 25
-12 25 -30 0 -21 -5 -25 -36 -28 -23 -2 -40 2 -49 12 -7 9 -23 16 -36 16 -36
0 -31 -34 9 -64 47 -36 101 -35 146 3 60 50 40 105 -51 138 -55 20 -73 36 -64
58 7 20 70 20 86 0 13 -16 46 -20 53 -7 11 17 -15 53 -49 67 -52 22 -75 19
-112 -14z"/>
<path d="M14015 965 c-42 -42 -45 -48 -45 -99 0 -149 121 -206 223 -104 22 22
22 34 0 42 -10 4 -28 -1 -45 -14 -28 -21 -73 -26 -97 -11 -13 9 -41 73 -41 97
0 7 13 26 29 43 35 38 82 42 105 10 16 -23 49 -22 54 2 1 9 -12 30 -29 47 -25
25 -42 32 -71 32 -32 0 -46 -7 -83 -45z"/>
<path d="M14283 965 c-40 -42 -43 -49 -43 -101 0 -67 18 -105 63 -133 49 -30
95 -27 139 9 49 41 64 87 49 155 -16 69 -68 115 -133 115 -24 0 -41 -10 -75
-45z m144 -42 c31 -35 31 -98 1 -130 -25 -27 -88 -32 -112 -8 -19 19 -30 76
-22 109 15 61 92 78 133 29z"/>
<path d="M14637 993 c-14 -14 -21 -15 -35 -6 -36 22 -50 0 -51 -84 0 -43 -4
-97 -7 -121 -7 -46 6 -72 36 -72 25 0 28 14 23 110 -5 98 4 118 57 129 29 6
35 11 35 31 0 31 -32 38 -58 13z"/>
<path d="M14793 992 c-45 -24 -69 -60 -76 -114 -8 -59 2 -86 48 -132 30 -30
43 -36 79 -36 35 0 50 6 80 33 20 18 36 39 36 45 0 17 -45 15 -60 -3 -8 -9
-29 -15 -56 -15 -36 0 -46 5 -63 29 -12 16 -21 34 -21 40 0 6 37 11 98 13 94
3 97 4 100 27 5 34 -27 89 -66 111 -40 24 -57 24 -99 2z m101 -64 c8 -12 13
-25 10 -30 -6 -10 -128 -11 -137 -1 -4 3 3 17 15 30 29 31 91 32 112 1z"/>
<path d="M15380 992 c-44 -30 -59 -50 -70 -93 -17 -60 2 -121 49 -159 87 -72
204 0 204 125 0 62 -24 100 -81 128 -44 21 -70 21 -102 -1z m109 -64 c31 -32
37 -80 15 -114 -25 -39 -33 -44 -76 -44 -47 0 -78 36 -78 91 0 76 91 120 139
67z"/>
<path d="M15658 993 c-31 -15 -52 -48 -43 -63 9 -15 41 -12 55 5 13 15 56 20
84 9 9 -3 16 -17 16 -30 0 -21 -5 -24 -35 -24 -113 0 -173 -87 -104 -151 37
-34 92 -40 108 -11 10 16 12 16 41 -1 18 -9 36 -14 42 -11 11 7 1 197 -13 234
-20 52 -95 73 -151 43z m110 -165 c4 -36 -22 -58 -68 -58 -30 0 -40 5 -45 20
-8 25 1 40 23 40 9 1 28 7 42 15 32 18 44 14 48 -17z"/>
<path d="M15888 878 c-4 -155 -2 -168 23 -168 31 0 40 33 33 118 -6 72 -5 81
15 101 12 12 34 21 52 21 27 0 30 3 27 28 -4 32 -37 42 -58 17 -16 -19 -44
-19 -60 0 -7 8 -16 15 -20 15 -5 0 -10 -60 -12 -132z"/>
<path d="M8947 988 c-15 -12 -17 -29 -15 -143 l3 -130 25 0 25 0 0 139 c0 143
-4 158 -38 134z"/>
<path d="M2847 523 c-12 -11 -8 -23 8 -23 8 0 15 7 15 15 0 16 -12 20 -23 8z"/>
</g>
</svg>
